<svg width="76" height="78" viewBox="0 0 76 78" fill="none" xmlns="http://www.w3.org/2000/svg">
<path d="M76 0H0V78H76V0Z" fill="#8F73B3" fill-opacity="0.3"/>
<g opacity="0.1">
<path opacity="0.1" d="M64 62.6076V64H62.6549" stroke="#20263C" stroke-miterlimit="10"/>
<path opacity="0.1" d="M60.0679 64H9.64079" stroke="#20263C" stroke-miterlimit="10" stroke-dasharray="5.77 5.77"/>
<path opacity="0.1" d="M8.34508 64H7V62.6076" stroke="#20263C" stroke-miterlimit="10"/>
<path opacity="0.1" d="M7 59.9296V7.72908" stroke="#20263C" stroke-miterlimit="10" stroke-dasharray="5.77 5.77"/>
<path opacity="0.1" d="M7 6.39239V5H8.34508" stroke="#20263C" stroke-miterlimit="10"/>
<path opacity="0.1" d="M10.9321 5H61.3591" stroke="#20263C" stroke-miterlimit="10" stroke-dasharray="5.77 5.77"/>
<path opacity="0.1" d="M62.6549 5H64V6.39239" stroke="#20263C" stroke-miterlimit="10"/>
<path opacity="0.1" d="M64 9.06577V61.2709" stroke="#20263C" stroke-miterlimit="10" stroke-dasharray="5.77 5.77"/>
</g>
<path d="M38.5652 29.8431C39.7383 29.8442 40.898 30.1056 41.9686 30.6102C43.0393 31.1148 43.9969 31.8513 44.7789 32.7717L47.2273 30.4483C45.6601 28.6139 43.604 27.3193 41.3273 26.7335C39.0507 26.1476 36.6591 26.2977 34.4647 27.1642C32.2703 28.0307 30.3749 29.5734 29.026 31.5908C27.677 33.6083 26.9372 36.0069 26.9029 38.4738C26.8685 40.9405 27.5414 43.361 28.8337 45.4191C30.126 47.4773 31.9776 49.0777 34.147 50.0114C36.3163 50.9451 38.7027 51.1689 40.9948 50.6534C43.2867 50.138 45.3779 48.9073 46.9954 47.1219L44.6027 44.7302C43.6495 45.7794 42.4642 46.5637 41.1528 47.0128C39.8414 47.462 38.4446 47.5621 37.0874 47.3042C35.7302 47.0463 34.455 46.4385 33.3755 45.535C32.296 44.6315 31.4461 43.4605 30.9016 42.1268C30.3571 40.793 30.1351 39.3379 30.2554 37.8918C30.3757 36.4456 30.8346 35.0534 31.5909 33.8395C32.3473 32.6256 33.3777 31.6279 34.5899 30.9357C35.8021 30.2434 37.1583 29.8781 38.5375 29.8723L38.5652 29.8431Z" fill="black"/>
<path d="M27.4994 26.9403L25.0839 24.5418C23.1969 26.3918 21.6995 28.5907 20.6778 31.0124C19.656 33.4341 19.13 36.0308 19.13 38.6533C19.13 41.2759 19.656 43.8726 20.6778 46.2942C21.6995 48.716 23.1969 50.9149 25.0839 52.7649L27.4994 50.3663C25.9261 48.8348 24.6771 47.0108 23.8245 45.0002C22.972 42.9896 22.5331 40.8323 22.5331 38.6533C22.5331 36.4744 22.972 34.3171 23.8245 32.3065C24.6771 30.2959 25.9261 28.4719 27.4994 26.9403Z" fill="black"/>
<path d="M50.2163 22.3792C46.9228 19.7931 42.943 18.4011 38.8578 18.4064V21.8888C42.2286 21.8855 45.5131 23.0295 48.2362 25.1554L50.2163 22.3792Z" fill="black"/>
<path d="M38.8578 55.4649V58.9003C42.6792 58.9048 46.4188 57.7613 49.6185 55.61L47.7389 52.7649C45.0948 54.5313 42.0096 55.4693 38.8578 55.4649Z" fill="black"/>
<path d="M38.8579 51.2218C36.2692 51.22 33.7436 50.4254 31.6229 48.9456C29.5021 47.4658 27.8888 45.3722 27.001 42.9482L23.9125 44.3779C25.0756 47.3882 27.1261 49.9767 29.7939 51.8024C32.4618 53.6281 35.6218 54.6053 38.8579 54.6055V51.2218Z" fill="black"/>
<path d="M26.6128 38.0398C26.8134 34.8122 28.1904 31.7846 30.4644 29.5713C32.7384 27.358 35.7392 26.1246 38.8579 26.1215V22.7012C34.864 22.701 31.0231 24.2933 28.1299 27.1485C25.2366 30.0036 23.5126 33.9031 23.3147 38.0398H26.6128Z" fill="black"/>
</svg>
